<svg xmlns="http://www.w3.org/2000/svg" xmlns:xlink="http://www.w3.org/1999/xlink" width="154" zoomAndPan="magnify" viewBox="0 0 115.5 39.749999" height="53" preserveAspectRatio="xMidYMid meet" version="1.0"><defs><g/><clipPath id="40daf14f11"><path d="M 4.078125 1.773438 L 5.578125 1.773438 L 5.578125 2.519531 L 4.078125 2.519531 Z M 4.078125 1.773438 " clip-rule="nonzero"/></clipPath><clipPath id="249216e7f9"><path d="M 0.113281 8 L 24 8 L 24 33 L 0.113281 33 Z M 0.113281 8 " clip-rule="nonzero"/></clipPath><clipPath id="4369c91271"><path d="M 60.371094 16.402344 L 70.101562 16.402344 L 70.101562 35.5625 L 60.371094 35.5625 Z M 60.371094 16.402344 " clip-rule="nonzero"/></clipPath><clipPath id="e0e7b4196a"><path d="M 65 5.621094 L 69 5.621094 L 69 10 L 65 10 Z M 65 5.621094 " clip-rule="nonzero"/></clipPath><clipPath id="04969b5d10"><path d="M 67.769531 10.476562 L 70.101562 10.476562 L 70.101562 12.828125 L 67.769531 12.828125 Z M 67.769531 10.476562 " clip-rule="nonzero"/></clipPath><clipPath id="cbae31f433"><path d="M 60.371094 10 L 63 10 L 63 13 L 60.371094 13 Z M 60.371094 10 " clip-rule="nonzero"/></clipPath></defs><g clip-path="url(#40daf14f11)"><path fill="#fffbf7" d="M 4.085938 2.519531 L 5.570312 2.519531 L 5.570312 2.394531 L 4.085938 2.394531 Z M 4.085938 2.207031 L 5.570312 2.207031 L 5.570312 2.082031 L 4.085938 2.082031 Z M 4.085938 1.773438 L 4.085938 1.894531 L 5.570312 1.894531 L 5.570312 1.773438 Z M 4.085938 1.773438 " fill-opacity="1" fill-rule="nonzero"/></g><g clip-path="url(#249216e7f9)"><g fill="#d9d9d9" fill-opacity="1"><g transform="translate(4.709041, 26.205076)"><g><path d="M 18.375 -2.875 C 18.269531 -2.726562 18.148438 -2.59375 18.015625 -2.46875 C 17.953125 -2.394531 17.878906 -2.316406 17.796875 -2.234375 C 16.648438 -0.929688 15.441406 0.3125 14.171875 1.5 C 13.023438 2.582031 11.796875 3.554688 10.484375 4.421875 C 9.785156 4.859375 9.0625 5.226562 8.3125 5.53125 C 7.5625 5.832031 6.78125 6.054688 5.96875 6.203125 C 5.15625 6.335938 4.347656 6.359375 3.546875 6.265625 C 2.335938 6.109375 1.410156 5.707031 0.765625 5.0625 C 0.117188 4.414062 -0.3125 3.617188 -0.53125 2.671875 C -0.757812 1.722656 -0.828125 0.71875 -0.734375 -0.34375 C -0.648438 -1.414062 -0.472656 -2.453125 -0.203125 -3.453125 C 0.0664062 -4.460938 0.375 -5.351562 0.71875 -6.125 C 1.394531 -7.6875 2.203125 -9.164062 3.140625 -10.5625 C 4.085938 -11.96875 5.164062 -13.28125 6.375 -14.5 C 6.550781 -14.675781 6.625 -14.789062 6.59375 -14.84375 C 6.5625 -14.894531 6.46875 -14.941406 6.3125 -14.984375 C 6.226562 -14.984375 6.144531 -15 6.0625 -15.03125 C 5.65625 -15.15625 5.257812 -15.285156 4.875 -15.421875 C 4.207031 -15.648438 3.546875 -15.859375 2.890625 -16.046875 C 2.242188 -16.242188 1.585938 -16.40625 0.921875 -16.53125 C 0.335938 -16.632812 -0.25 -16.660156 -0.84375 -16.609375 C -1.269531 -16.585938 -1.664062 -16.46875 -2.03125 -16.25 C -2.28125 -16.101562 -2.492188 -15.925781 -2.671875 -15.71875 C -2.847656 -15.519531 -2.945312 -15.257812 -2.96875 -14.9375 C -3 -14.644531 -3.207031 -14.53125 -3.59375 -14.59375 C -3.84375 -14.632812 -3.96875 -14.789062 -3.96875 -15.0625 C -3.96875 -15.257812 -3.929688 -15.4375 -3.859375 -15.59375 C -3.785156 -15.75 -3.679688 -15.898438 -3.546875 -16.046875 C -3.085938 -16.597656 -2.5 -16.953125 -1.78125 -17.109375 C -0.90625 -17.296875 -0.015625 -17.332031 0.890625 -17.21875 C 1.546875 -17.113281 2.1875 -16.972656 2.8125 -16.796875 C 3.445312 -16.617188 4.082031 -16.429688 4.71875 -16.234375 C 4.769531 -16.210938 4.820312 -16.203125 4.875 -16.203125 C 5.0625 -16.128906 5.253906 -16.0625 5.453125 -16 C 5.929688 -15.863281 6.40625 -15.710938 6.875 -15.546875 C 7.050781 -15.472656 7.210938 -15.453125 7.359375 -15.484375 C 7.503906 -15.523438 7.648438 -15.601562 7.796875 -15.71875 C 8.390625 -16.195312 9.03125 -16.601562 9.71875 -16.9375 C 10.59375 -17.382812 11.53125 -17.644531 12.53125 -17.71875 C 12.84375 -17.75 13.148438 -17.738281 13.453125 -17.6875 C 13.753906 -17.644531 14.046875 -17.554688 14.328125 -17.421875 C 14.785156 -17.191406 15.050781 -16.878906 15.125 -16.484375 C 15.195312 -16.097656 15.0625 -15.71875 14.71875 -15.34375 C 14.40625 -15.007812 14.03125 -14.765625 13.59375 -14.609375 C 13.082031 -14.398438 12.546875 -14.273438 11.984375 -14.234375 C 11.421875 -14.191406 10.859375 -14.175781 10.296875 -14.1875 C 9.734375 -14.207031 9.175781 -14.273438 8.625 -14.390625 C 8.582031 -14.390625 8.546875 -14.394531 8.515625 -14.40625 C 8.304688 -14.457031 8.117188 -14.476562 7.953125 -14.46875 C 7.796875 -14.46875 7.628906 -14.382812 7.453125 -14.21875 C 6.003906 -12.789062 4.734375 -11.1875 3.640625 -9.40625 C 2.554688 -7.632812 1.691406 -5.789062 1.046875 -3.875 C 0.796875 -3.195312 0.597656 -2.441406 0.453125 -1.609375 C 0.316406 -0.785156 0.269531 0.0390625 0.3125 0.875 C 0.351562 1.707031 0.53125 2.484375 0.84375 3.203125 C 1.15625 3.921875 1.648438 4.523438 2.328125 5.015625 C 2.898438 5.398438 3.53125 5.601562 4.21875 5.625 C 5.238281 5.644531 6.226562 5.484375 7.1875 5.140625 C 8.21875 4.753906 9.1875 4.25 10.09375 3.625 C 10.882812 3.070312 11.632812 2.484375 12.34375 1.859375 C 13.0625 1.242188 13.769531 0.601562 14.46875 -0.0625 C 14.726562 -0.300781 15.171875 -0.710938 15.796875 -1.296875 C 16.421875 -1.878906 16.992188 -2.390625 17.515625 -2.828125 C 17.597656 -2.910156 17.679688 -2.992188 17.765625 -3.078125 C 17.929688 -3.222656 18.078125 -3.335938 18.203125 -3.421875 C 18.328125 -3.503906 18.445312 -3.535156 18.5625 -3.515625 C 18.78125 -3.492188 18.71875 -3.28125 18.375 -2.875 Z M 12.484375 -17.046875 C 11.753906 -16.941406 11.070312 -16.722656 10.4375 -16.390625 C 9.800781 -16.066406 9.175781 -15.664062 8.5625 -15.1875 C 9.101562 -15 9.675781 -14.878906 10.28125 -14.828125 C 10.882812 -14.785156 11.4375 -14.800781 11.9375 -14.875 C 12.382812 -14.945312 12.804688 -15.082031 13.203125 -15.28125 C 13.460938 -15.40625 13.679688 -15.578125 13.859375 -15.796875 C 14.003906 -16.023438 14.050781 -16.238281 14 -16.4375 C 13.945312 -16.644531 13.800781 -16.800781 13.5625 -16.90625 C 13.207031 -17.050781 12.847656 -17.097656 12.484375 -17.046875 Z M 12.484375 -17.046875 "/></g></g></g></g><g fill="#d9d9d9" fill-opacity="1"><g transform="translate(22.737856, 26.205076)"><g><path d="M 6.03125 -3.3125 C 6.082031 -3.300781 6.113281 -3.285156 6.125 -3.265625 C 6.144531 -3.253906 6.171875 -3.21875 6.203125 -3.15625 C 6.210938 -3.101562 6.1875 -3.035156 6.125 -2.953125 C 6.070312 -2.867188 6.023438 -2.804688 5.984375 -2.765625 C 5.617188 -2.421875 5.195312 -2.21875 4.71875 -2.15625 C 4.4375 -2.113281 4.15625 -2.101562 3.875 -2.125 C 3.601562 -2.144531 3.332031 -2.210938 3.0625 -2.328125 C 2.875 -2.421875 2.695312 -2.390625 2.53125 -2.234375 C 2.175781 -1.921875 1.8125 -1.617188 1.4375 -1.328125 C 1.238281 -1.179688 1.03125 -1.0625 0.8125 -0.96875 C 0.601562 -0.875 0.375 -0.816406 0.125 -0.796875 C -0.601562 -0.816406 -0.890625 -1.175781 -0.734375 -1.875 C -0.722656 -1.90625 -0.710938 -1.929688 -0.703125 -1.953125 C -0.492188 -2.523438 -0.21875 -3.039062 0.125 -3.5 C 0.476562 -3.957031 0.921875 -4.335938 1.453125 -4.640625 C 1.804688 -4.847656 2.179688 -4.929688 2.578125 -4.890625 C 2.691406 -4.867188 2.796875 -4.828125 2.890625 -4.765625 C 3.003906 -4.710938 3.050781 -4.617188 3.03125 -4.484375 C 3.019531 -4.453125 3 -4.421875 2.96875 -4.390625 C 2.945312 -4.359375 2.921875 -4.328125 2.890625 -4.296875 C 2.867188 -4.273438 2.84375 -4.257812 2.8125 -4.25 C 2.789062 -4.25 2.765625 -4.25 2.734375 -4.25 C 2.441406 -4.238281 2.191406 -4.148438 1.984375 -3.984375 C 1.773438 -3.828125 1.582031 -3.648438 1.40625 -3.453125 C 1.21875 -3.234375 1.039062 -2.992188 0.875 -2.734375 C 0.707031 -2.472656 0.570312 -2.164062 0.46875 -1.8125 C 0.851562 -2.03125 1.15625 -2.25 1.375 -2.46875 C 1.425781 -2.519531 1.472656 -2.566406 1.515625 -2.609375 C 1.554688 -2.640625 1.597656 -2.671875 1.640625 -2.703125 C 1.835938 -2.890625 2.039062 -3.050781 2.25 -3.1875 C 2.488281 -3.320312 2.726562 -3.390625 2.96875 -3.390625 C 3.207031 -3.390625 3.4375 -3.289062 3.65625 -3.09375 C 3.96875 -2.820312 4.265625 -2.71875 4.546875 -2.78125 C 4.835938 -2.84375 5.109375 -2.941406 5.359375 -3.078125 C 5.617188 -3.234375 5.84375 -3.3125 6.03125 -3.3125 Z M 6.03125 -3.3125 "/></g></g></g><g fill="#d9d9d9" fill-opacity="1"><g transform="translate(28.315073, 26.205076)"><g><path d="M 9.140625 -3.328125 C 9.222656 -3.335938 9.289062 -3.328125 9.34375 -3.296875 C 9.394531 -3.265625 9.421875 -3.195312 9.421875 -3.09375 C 9.441406 -3.050781 9.425781 -2.984375 9.375 -2.890625 C 9.320312 -2.796875 9.257812 -2.703125 9.1875 -2.609375 C 9.125 -2.523438 9.070312 -2.46875 9.03125 -2.4375 C 8.71875 -2.09375 8.363281 -1.867188 7.96875 -1.765625 C 7.582031 -1.660156 7.171875 -1.644531 6.734375 -1.71875 C 6.515625 -1.757812 6.328125 -1.847656 6.171875 -1.984375 C 6.015625 -2.117188 5.875 -2.28125 5.75 -2.46875 C 5.738281 -2.476562 5.734375 -2.488281 5.734375 -2.5 C 5.597656 -2.71875 5.445312 -2.9375 5.28125 -3.15625 C 5.195312 -3.257812 5.117188 -3.3125 5.046875 -3.3125 C 4.972656 -3.3125 4.890625 -3.265625 4.796875 -3.171875 C 4.503906 -2.898438 4.253906 -2.59375 4.046875 -2.25 C 3.847656 -1.957031 3.554688 -1.828125 3.171875 -1.859375 C 2.890625 -1.867188 2.707031 -2.007812 2.625 -2.28125 C 2.601562 -2.351562 2.59375 -2.421875 2.59375 -2.484375 C 2.570312 -2.835938 2.492188 -2.941406 2.359375 -2.796875 C 2.234375 -2.648438 2.109375 -2.453125 1.984375 -2.203125 C 1.929688 -2.109375 1.875 -2.007812 1.8125 -1.90625 C 1.75 -1.789062 1.679688 -1.675781 1.609375 -1.5625 C 1.546875 -1.4375 1.472656 -1.3125 1.390625 -1.1875 C 1.253906 -0.988281 1.066406 -0.878906 0.828125 -0.859375 C 0.378906 -0.816406 0.128906 -1.007812 0.078125 -1.4375 C 0.0546875 -1.8125 0.0390625 -2.179688 0.03125 -2.546875 C 0.0195312 -2.710938 0.0078125 -2.878906 0 -3.046875 C -0.0078125 -3.191406 -0.015625 -3.34375 -0.015625 -3.5 C -0.0351562 -3.769531 -0.0507812 -4.035156 -0.0625 -4.296875 C -0.0703125 -4.648438 0.0859375 -4.835938 0.421875 -4.859375 C 0.773438 -4.890625 0.984375 -4.75 1.046875 -4.4375 C 1.078125 -4.144531 1.109375 -3.851562 1.140625 -3.5625 C 1.140625 -3.363281 1.160156 -3.242188 1.203125 -3.203125 C 1.242188 -3.160156 1.28125 -3.148438 1.3125 -3.171875 C 1.351562 -3.203125 1.394531 -3.242188 1.4375 -3.296875 C 1.476562 -3.347656 1.515625 -3.398438 1.546875 -3.453125 C 1.640625 -3.585938 1.742188 -3.710938 1.859375 -3.828125 C 2.148438 -4.078125 2.488281 -4.179688 2.875 -4.140625 C 3.207031 -4.109375 3.445312 -3.945312 3.59375 -3.65625 C 3.644531 -3.539062 3.722656 -3.519531 3.828125 -3.59375 C 3.929688 -3.675781 4.070312 -3.769531 4.25 -3.875 C 4.425781 -3.988281 4.625 -4.0625 4.84375 -4.09375 C 5.351562 -4.207031 5.789062 -4.078125 6.15625 -3.703125 C 6.3125 -3.523438 6.46875 -3.328125 6.625 -3.109375 C 6.632812 -3.085938 6.648438 -3.066406 6.671875 -3.046875 C 6.710938 -2.992188 6.753906 -2.9375 6.796875 -2.875 C 6.816406 -2.8125 6.847656 -2.75 6.890625 -2.6875 C 7.046875 -2.476562 7.210938 -2.367188 7.390625 -2.359375 C 7.578125 -2.359375 7.757812 -2.414062 7.9375 -2.53125 C 8.113281 -2.644531 8.285156 -2.773438 8.453125 -2.921875 C 8.585938 -3.035156 8.707031 -3.128906 8.8125 -3.203125 C 8.925781 -3.285156 9.035156 -3.328125 9.140625 -3.328125 Z M 9.140625 -3.328125 "/></g></g></g><g fill="#d9d9d9" fill-opacity="1"><g transform="translate(37.006832, 26.205076)"><g><path d="M 1.40625 -2.578125 C 1.394531 -2.578125 1.382812 -2.578125 1.375 -2.578125 C 1.375 -2.578125 1.378906 -2.578125 1.390625 -2.578125 C 1.390625 -2.578125 1.394531 -2.578125 1.40625 -2.578125 Z M 6.015625 -3.25 C 6.066406 -3.28125 6.144531 -3.316406 6.25 -3.359375 C 6.351562 -3.398438 6.453125 -3.421875 6.546875 -3.421875 C 6.648438 -3.429688 6.71875 -3.394531 6.75 -3.3125 C 6.78125 -3.257812 6.785156 -3.207031 6.765625 -3.15625 C 6.753906 -3.101562 6.734375 -3.054688 6.703125 -3.015625 C 6.453125 -2.742188 6.070312 -2.472656 5.5625 -2.203125 C 5.0625 -1.941406 4.535156 -1.707031 3.984375 -1.5 C 3.441406 -1.289062 2.992188 -1.15625 2.640625 -1.09375 C 2.222656 -1.019531 1.800781 -1.003906 1.375 -1.046875 C 0.851562 -1.109375 0.460938 -1.320312 0.203125 -1.6875 C -0.046875 -2.050781 -0.144531 -2.460938 -0.09375 -2.921875 C -0.0195312 -3.429688 0.207031 -3.835938 0.59375 -4.140625 C 0.988281 -4.441406 1.4375 -4.550781 1.9375 -4.46875 C 2.25 -4.4375 2.53125 -4.328125 2.78125 -4.140625 C 3.050781 -3.921875 3.171875 -3.664062 3.140625 -3.375 C 3.117188 -3.09375 2.953125 -2.875 2.640625 -2.71875 C 2.472656 -2.644531 2.289062 -2.597656 2.09375 -2.578125 C 1.894531 -2.554688 1.664062 -2.554688 1.40625 -2.578125 C 1.40625 -2.578125 1.394531 -2.578125 1.375 -2.578125 C 1.363281 -2.578125 1.34375 -2.578125 1.3125 -2.578125 C 1.289062 -2.578125 1.265625 -2.578125 1.234375 -2.578125 C 1.148438 -2.578125 1.097656 -2.554688 1.078125 -2.515625 C 1.054688 -2.472656 1.054688 -2.414062 1.078125 -2.34375 C 1.222656 -1.988281 1.503906 -1.800781 1.921875 -1.78125 C 2.347656 -1.757812 2.828125 -1.835938 3.359375 -2.015625 C 3.898438 -2.191406 4.410156 -2.398438 4.890625 -2.640625 C 5.378906 -2.878906 5.753906 -3.082031 6.015625 -3.25 Z M 1.390625 -3.671875 C 1.328125 -3.617188 1.28125 -3.5625 1.25 -3.5 C 1.226562 -3.4375 1.210938 -3.378906 1.203125 -3.328125 C 1.203125 -3.285156 1.210938 -3.257812 1.234375 -3.25 C 1.253906 -3.25 1.304688 -3.238281 1.390625 -3.21875 C 1.484375 -3.207031 1.585938 -3.207031 1.703125 -3.21875 C 1.816406 -3.226562 1.910156 -3.25 1.984375 -3.28125 C 2.054688 -3.320312 2.082031 -3.390625 2.0625 -3.484375 C 2.007812 -3.617188 1.910156 -3.703125 1.765625 -3.734375 C 1.628906 -3.773438 1.503906 -3.753906 1.390625 -3.671875 Z M 1.390625 -3.671875 "/></g></g></g><g fill="#d9d9d9" fill-opacity="1"><g transform="translate(43.091063, 26.205076)"><g><path d="M 5.59375 -3.171875 C 5.789062 -3.359375 5.953125 -3.394531 6.078125 -3.28125 C 6.210938 -3.164062 6.210938 -2.957031 6.078125 -2.65625 C 5.773438 -2.0625 5.382812 -1.503906 4.90625 -0.984375 C 4.4375 -0.472656 3.898438 -0.0976562 3.296875 0.140625 C 3.035156 0.222656 2.769531 0.265625 2.5 0.265625 C 2.238281 0.265625 1.984375 0.234375 1.734375 0.171875 C 1.472656 0.109375 1.257812 0 1.09375 -0.15625 C 0.925781 -0.320312 0.78125 -0.507812 0.65625 -0.71875 C 0.28125 -1.414062 0.046875 -2.421875 -0.046875 -3.734375 C -0.148438 -5.046875 -0.160156 -6.472656 -0.078125 -8.015625 C 0.00390625 -9.566406 0.128906 -11.050781 0.296875 -12.46875 C 0.472656 -13.894531 0.65625 -15.070312 0.84375 -16 C 0.925781 -16.382812 1.054688 -16.753906 1.234375 -17.109375 C 1.421875 -17.460938 1.71875 -17.625 2.125 -17.59375 C 2.507812 -17.59375 2.769531 -17.414062 2.90625 -17.0625 C 3.0625 -16.601562 3.148438 -16.140625 3.171875 -15.671875 C 3.253906 -14.546875 3.222656 -13.425781 3.078125 -12.3125 C 2.953125 -11.25 2.785156 -10.25 2.578125 -9.3125 C 2.378906 -8.375 2.164062 -7.457031 1.9375 -6.5625 C 1.65625 -5.46875 1.390625 -4.320312 1.140625 -3.125 C 1.148438 -3 1.164062 -2.890625 1.1875 -2.796875 C 1.21875 -2.453125 1.265625 -2.15625 1.328125 -1.90625 C 1.390625 -1.664062 1.523438 -1.367188 1.734375 -1.015625 C 1.921875 -0.671875 2.160156 -0.488281 2.453125 -0.46875 C 2.753906 -0.445312 3.054688 -0.53125 3.359375 -0.71875 C 3.671875 -0.90625 3.957031 -1.125 4.21875 -1.375 C 4.476562 -1.632812 4.679688 -1.867188 4.828125 -2.078125 C 4.867188 -2.140625 4.941406 -2.25 5.046875 -2.40625 C 5.148438 -2.5625 5.253906 -2.710938 5.359375 -2.859375 C 5.472656 -3.003906 5.550781 -3.109375 5.59375 -3.171875 Z M 1.015625 -6.671875 C 1.140625 -6.984375 1.265625 -7.492188 1.390625 -8.203125 C 1.515625 -8.921875 1.628906 -9.710938 1.734375 -10.578125 C 1.835938 -11.453125 1.914062 -12.28125 1.96875 -13.0625 C 2.019531 -13.851562 2.035156 -14.484375 2.015625 -14.953125 C 2.003906 -15.429688 1.945312 -15.632812 1.84375 -15.5625 C 1.6875 -14.894531 1.582031 -14.273438 1.53125 -13.703125 C 1.5 -13.398438 1.457031 -12.953125 1.40625 -12.359375 C 1.289062 -11.335938 1.179688 -10.25 1.078125 -9.09375 C 0.984375 -7.9375 0.960938 -7.128906 1.015625 -6.671875 Z M 1.015625 -6.671875 "/></g></g></g><g fill="#d9d9d9" fill-opacity="1"><g transform="translate(48.589265, 26.205076)"><g><path d="M 4.796875 -3.296875 C 4.859375 -3.265625 4.882812 -3.210938 4.875 -3.140625 C 4.875 -3.066406 4.851562 -3.003906 4.8125 -2.953125 C 4.507812 -2.503906 4.1875 -2.109375 3.84375 -1.765625 C 3.5 -1.429688 3.125 -1.175781 2.71875 -1 C 2.3125 -0.832031 1.84375 -0.785156 1.3125 -0.859375 C 0.945312 -0.921875 0.675781 -1.039062 0.5 -1.21875 C 0.320312 -1.40625 0.1875 -1.671875 0.09375 -2.015625 C -0.0507812 -2.546875 -0.0820312 -3.09375 0 -3.65625 C 0.0625 -3.976562 0.265625 -4.144531 0.609375 -4.15625 C 0.910156 -4.15625 1.070312 -4.019531 1.09375 -3.75 C 1.101562 -3.53125 1.101562 -3.304688 1.09375 -3.078125 C 1.09375 -3.046875 1.09375 -3.019531 1.09375 -3 C 1.082031 -2.394531 1.179688 -1.984375 1.390625 -1.765625 C 1.609375 -1.546875 1.890625 -1.488281 2.234375 -1.59375 C 2.578125 -1.695312 2.941406 -1.9375 3.328125 -2.3125 C 3.367188 -2.363281 3.425781 -2.429688 3.5 -2.515625 C 3.570312 -2.597656 3.65625 -2.679688 3.75 -2.765625 C 3.863281 -2.890625 3.960938 -2.992188 4.046875 -3.078125 C 4.285156 -3.328125 4.535156 -3.398438 4.796875 -3.296875 Z M 0.515625 -5.125 C 0.253906 -5.144531 0.101562 -5.289062 0.0625 -5.5625 C 0.03125 -5.769531 0.0625 -5.972656 0.15625 -6.171875 C 0.25 -6.335938 0.394531 -6.453125 0.59375 -6.515625 C 0.789062 -6.578125 0.972656 -6.554688 1.140625 -6.453125 C 1.210938 -6.421875 1.257812 -6.375 1.28125 -6.3125 C 1.3125 -6.25 1.320312 -6.195312 1.3125 -6.15625 C 1.3125 -5.457031 1.046875 -5.113281 0.515625 -5.125 Z M 0.515625 -5.125 "/></g></g></g><g fill="#d9d9d9" fill-opacity="1"><g transform="translate(52.62567, 26.205076)"><g><path d="M 6.03125 -3.3125 C 6.082031 -3.300781 6.113281 -3.285156 6.125 -3.265625 C 6.144531 -3.253906 6.171875 -3.21875 6.203125 -3.15625 C 6.210938 -3.101562 6.1875 -3.035156 6.125 -2.953125 C 6.070312 -2.867188 6.023438 -2.804688 5.984375 -2.765625 C 5.617188 -2.421875 5.195312 -2.21875 4.71875 -2.15625 C 4.4375 -2.113281 4.15625 -2.101562 3.875 -2.125 C 3.601562 -2.144531 3.332031 -2.210938 3.0625 -2.328125 C 2.875 -2.421875 2.695312 -2.390625 2.53125 -2.234375 C 2.175781 -1.921875 1.8125 -1.617188 1.4375 -1.328125 C 1.238281 -1.179688 1.03125 -1.0625 0.8125 -0.96875 C 0.601562 -0.875 0.375 -0.816406 0.125 -0.796875 C -0.601562 -0.816406 -0.890625 -1.175781 -0.734375 -1.875 C -0.722656 -1.90625 -0.710938 -1.929688 -0.703125 -1.953125 C -0.492188 -2.523438 -0.21875 -3.039062 0.125 -3.5 C 0.476562 -3.957031 0.921875 -4.335938 1.453125 -4.640625 C 1.804688 -4.847656 2.179688 -4.929688 2.578125 -4.890625 C 2.691406 -4.867188 2.796875 -4.828125 2.890625 -4.765625 C 3.003906 -4.710938 3.050781 -4.617188 3.03125 -4.484375 C 3.019531 -4.453125 3 -4.421875 2.96875 -4.390625 C 2.945312 -4.359375 2.921875 -4.328125 2.890625 -4.296875 C 2.867188 -4.273438 2.84375 -4.257812 2.8125 -4.25 C 2.789062 -4.25 2.765625 -4.25 2.734375 -4.25 C 2.441406 -4.238281 2.191406 -4.148438 1.984375 -3.984375 C 1.773438 -3.828125 1.582031 -3.648438 1.40625 -3.453125 C 1.21875 -3.234375 1.039062 -2.992188 0.875 -2.734375 C 0.707031 -2.472656 0.570312 -2.164062 0.46875 -1.8125 C 0.851562 -2.03125 1.15625 -2.25 1.375 -2.46875 C 1.425781 -2.519531 1.472656 -2.566406 1.515625 -2.609375 C 1.554688 -2.640625 1.597656 -2.671875 1.640625 -2.703125 C 1.835938 -2.890625 2.039062 -3.050781 2.25 -3.1875 C 2.488281 -3.320312 2.726562 -3.390625 2.96875 -3.390625 C 3.207031 -3.390625 3.4375 -3.289062 3.65625 -3.09375 C 3.96875 -2.820312 4.265625 -2.71875 4.546875 -2.78125 C 4.835938 -2.84375 5.109375 -2.941406 5.359375 -3.078125 C 5.617188 -3.234375 5.84375 -3.3125 6.03125 -3.3125 Z M 6.03125 -3.3125 "/></g></g></g><g fill="#d9d9d9" fill-opacity="1"><g transform="translate(58.202888, 26.205076)"><g/></g></g><g fill="#d9d9d9" fill-opacity="1"><g transform="translate(63.411364, 26.205076)"><g><path d="M 18.390625 -3.296875 C 18.453125 -3.210938 18.445312 -3.097656 18.375 -2.953125 C 18.3125 -2.804688 18.046875 -2.628906 17.578125 -2.421875 C 17.109375 -2.210938 16.578125 -2.023438 15.984375 -1.859375 C 15.878906 -1.847656 15.769531 -1.832031 15.65625 -1.8125 C 15.425781 -1.78125 15.300781 -1.65625 15.28125 -1.4375 C 15.226562 -0.957031 15.15625 -0.488281 15.0625 -0.03125 C 14.695312 1.625 13.960938 3.097656 12.859375 4.390625 C 11.640625 5.785156 10.203125 6.894531 8.546875 7.71875 C 6.890625 8.539062 5.132812 9.023438 3.28125 9.171875 C 1.4375 9.328125 -0.363281 9.113281 -2.125 8.53125 C -3.019531 8.238281 -3.84375 7.820312 -4.59375 7.28125 C -5.019531 6.976562 -5.382812 6.628906 -5.6875 6.234375 C -6.28125 5.390625 -6.316406 4.519531 -5.796875 3.625 C -5.472656 3.0625 -4.992188 2.566406 -4.359375 2.140625 C -3.734375 1.710938 -3.03125 1.34375 -2.25 1.03125 C -1.46875 0.726562 -0.675781 0.46875 0.125 0.25 C 0.925781 0.03125 1.671875 -0.160156 2.359375 -0.328125 C 2.578125 -0.390625 2.785156 -0.441406 2.984375 -0.484375 C 3.203125 -0.546875 3.316406 -0.6875 3.328125 -0.90625 C 3.328125 -0.957031 3.328125 -1.007812 3.328125 -1.0625 C 3.328125 -1.125 3.328125 -1.179688 3.328125 -1.234375 C 3.335938 -1.421875 3.347656 -1.609375 3.359375 -1.796875 C 3.429688 -3.585938 3.488281 -5.382812 3.53125 -7.1875 C 3.582031 -9 3.585938 -10.800781 3.546875 -12.59375 C 3.535156 -12.945312 3.507812 -13.296875 3.46875 -13.640625 C 3.445312 -13.828125 3.425781 -14.007812 3.40625 -14.1875 C 3.375 -14.488281 3.472656 -14.664062 3.703125 -14.71875 C 4.085938 -14.8125 4.332031 -14.691406 4.4375 -14.359375 C 4.507812 -14.097656 4.550781 -13.828125 4.5625 -13.546875 C 4.664062 -12.398438 4.71875 -11.253906 4.71875 -10.109375 C 4.71875 -10.003906 4.71875 -9.90625 4.71875 -9.8125 C 4.71875 -9.769531 4.71875 -9.734375 4.71875 -9.703125 C 4.78125 -9.671875 4.832031 -9.660156 4.875 -9.671875 C 4.914062 -9.679688 4.953125 -9.695312 4.984375 -9.71875 C 5.648438 -10.382812 6.289062 -11.066406 6.90625 -11.765625 C 7.53125 -12.472656 8.109375 -13.222656 8.640625 -14.015625 C 9.085938 -14.660156 9.429688 -15.363281 9.671875 -16.125 C 9.753906 -16.445312 9.796875 -16.78125 9.796875 -17.125 C 9.785156 -17.738281 9.570312 -18.175781 9.15625 -18.4375 C 8.75 -18.707031 8.226562 -18.847656 7.59375 -18.859375 C 6.957031 -18.878906 6.289062 -18.816406 5.59375 -18.671875 C 4.90625 -18.523438 4.265625 -18.347656 3.671875 -18.140625 C 3.078125 -17.929688 2.625 -17.742188 2.3125 -17.578125 C 1.894531 -17.359375 1.523438 -17.097656 1.203125 -16.796875 C 1.191406 -16.785156 1.179688 -16.769531 1.171875 -16.75 C 1.066406 -16.664062 0.984375 -16.570312 0.921875 -16.46875 C 0.867188 -16.363281 0.878906 -16.234375 0.953125 -16.078125 C 0.972656 -16.015625 0.960938 -15.960938 0.921875 -15.921875 C 0.878906 -15.878906 0.832031 -15.847656 0.78125 -15.828125 C 0.644531 -15.785156 0.503906 -15.765625 0.359375 -15.765625 C 0.117188 -15.742188 -0.0703125 -15.832031 -0.21875 -16.03125 C -0.28125 -16.144531 -0.296875 -16.25 -0.265625 -16.34375 C -0.234375 -16.445312 -0.1875 -16.539062 -0.125 -16.625 C -0.125 -16.632812 -0.113281 -16.640625 -0.09375 -16.640625 C 0.0507812 -16.878906 0.222656 -17.082031 0.421875 -17.25 C 0.617188 -17.425781 0.832031 -17.585938 1.0625 -17.734375 C 2.070312 -18.398438 3.210938 -18.878906 4.484375 -19.171875 C 5.753906 -19.460938 6.992188 -19.554688 8.203125 -19.453125 C 8.722656 -19.410156 9.207031 -19.273438 9.65625 -19.046875 C 10.613281 -18.554688 11.03125 -17.773438 10.90625 -16.703125 C 10.8125 -16.085938 10.625 -15.5 10.34375 -14.9375 C 9.863281 -13.988281 9.273438 -13.101562 8.578125 -12.28125 C 7.722656 -11.238281 6.816406 -10.238281 5.859375 -9.28125 C 5.515625 -8.9375 5.347656 -8.726562 5.359375 -8.65625 C 5.378906 -8.59375 5.5625 -8.582031 5.90625 -8.625 C 5.96875 -8.625 6.046875 -8.628906 6.140625 -8.640625 C 6.890625 -8.679688 7.660156 -8.703125 8.453125 -8.703125 C 9.242188 -8.703125 10.007812 -8.625 10.75 -8.46875 C 11.5 -8.320312 12.1875 -8.046875 12.8125 -7.640625 C 13.4375 -7.242188 13.960938 -6.664062 14.390625 -5.90625 C 14.835938 -5.050781 15.117188 -4.144531 15.234375 -3.1875 C 15.242188 -3.125 15.25 -3.066406 15.25 -3.015625 C 15.28125 -2.742188 15.453125 -2.613281 15.765625 -2.625 C 16.085938 -2.644531 16.457031 -2.722656 16.875 -2.859375 C 17.300781 -3.003906 17.644531 -3.132812 17.90625 -3.25 C 18.164062 -3.375 18.328125 -3.390625 18.390625 -3.296875 Z M 14.09375 -1.34375 C 14.101562 -1.40625 14.085938 -1.457031 14.046875 -1.5 C 14.015625 -1.539062 13.960938 -1.5625 13.890625 -1.5625 C 13.523438 -1.519531 13.15625 -1.476562 12.78125 -1.4375 C 12.738281 -1.4375 12.691406 -1.429688 12.640625 -1.421875 C 10.878906 -1.191406 9.164062 -0.914062 7.5 -0.59375 C 6.550781 -0.414062 5.585938 -0.25 4.609375 -0.09375 C 4.335938 -0.0507812 4.210938 0.101562 4.234375 0.375 C 4.222656 0.488281 4.207031 0.597656 4.1875 0.703125 C 4.15625 0.847656 4.0625 0.9375 3.90625 0.96875 C 3.738281 1.03125 3.570312 1.03125 3.40625 0.96875 C 3.332031 0.925781 3.285156 0.875 3.265625 0.8125 C 3.242188 0.757812 3.226562 0.695312 3.21875 0.625 C 3.21875 0.601562 3.210938 0.578125 3.203125 0.546875 C 3.179688 0.429688 3.148438 0.351562 3.109375 0.3125 C 3.066406 0.28125 2.992188 0.273438 2.890625 0.296875 C 2.515625 0.347656 2.019531 0.453125 1.40625 0.609375 C 0.789062 0.773438 0.125 0.984375 -0.59375 1.234375 C -1.320312 1.484375 -2.015625 1.773438 -2.671875 2.109375 C -3.335938 2.453125 -3.890625 2.832031 -4.328125 3.25 C -4.765625 3.675781 -5.007812 4.132812 -5.0625 4.625 C -5.113281 5.113281 -4.898438 5.640625 -4.421875 6.203125 C -4.003906 6.660156 -3.515625 7.03125 -2.953125 7.3125 C -1.328125 8.132812 0.363281 8.539062 2.125 8.53125 C 3.882812 8.53125 5.578125 8.171875 7.203125 7.453125 C 8.828125 6.742188 10.253906 5.738281 11.484375 4.4375 C 12.703125 3.144531 13.507812 1.628906 13.90625 -0.109375 C 13.976562 -0.472656 14.035156 -0.847656 14.078125 -1.234375 C 14.078125 -1.273438 14.082031 -1.3125 14.09375 -1.34375 Z M 13.71875 -2.25 C 13.894531 -2.269531 14.007812 -2.3125 14.0625 -2.375 C 14.125 -2.4375 14.144531 -2.554688 14.125 -2.734375 C 14.070312 -3.546875 13.890625 -4.335938 13.578125 -5.109375 C 13.210938 -5.960938 12.726562 -6.609375 12.125 -7.046875 C 11.519531 -7.492188 10.835938 -7.785156 10.078125 -7.921875 C 9.316406 -8.054688 8.53125 -8.109375 7.71875 -8.078125 C 6.90625 -8.046875 6.101562 -7.984375 5.3125 -7.890625 C 5.195312 -7.890625 5.085938 -7.878906 4.984375 -7.859375 C 4.804688 -7.835938 4.695312 -7.769531 4.65625 -7.65625 C 4.613281 -7.550781 4.597656 -7.425781 4.609375 -7.28125 C 4.609375 -7.257812 4.609375 -7.242188 4.609375 -7.234375 C 4.578125 -5.609375 4.492188 -3.898438 4.359375 -2.109375 C 4.359375 -2.085938 4.359375 -2.0625 4.359375 -2.03125 C 4.359375 -1.90625 4.359375 -1.738281 4.359375 -1.53125 C 4.335938 -1.164062 4.363281 -0.953125 4.4375 -0.890625 C 4.519531 -0.828125 4.738281 -0.835938 5.09375 -0.921875 C 5.488281 -0.984375 5.878906 -1.054688 6.265625 -1.140625 C 7.492188 -1.367188 8.734375 -1.570312 9.984375 -1.75 C 11.222656 -1.914062 12.46875 -2.082031 13.71875 -2.25 Z M 13.71875 -2.25 "/></g></g></g><g fill="#d9d9d9" fill-opacity="1"><g transform="translate(81.387502, 26.205076)"><g><path d="M 1.40625 -2.578125 C 1.394531 -2.578125 1.382812 -2.578125 1.375 -2.578125 C 1.375 -2.578125 1.378906 -2.578125 1.390625 -2.578125 C 1.390625 -2.578125 1.394531 -2.578125 1.40625 -2.578125 Z M 6.015625 -3.25 C 6.066406 -3.28125 6.144531 -3.316406 6.25 -3.359375 C 6.351562 -3.398438 6.453125 -3.421875 6.546875 -3.421875 C 6.648438 -3.429688 6.71875 -3.394531 6.75 -3.3125 C 6.78125 -3.257812 6.785156 -3.207031 6.765625 -3.15625 C 6.753906 -3.101562 6.734375 -3.054688 6.703125 -3.015625 C 6.453125 -2.742188 6.070312 -2.472656 5.5625 -2.203125 C 5.0625 -1.941406 4.535156 -1.707031 3.984375 -1.5 C 3.441406 -1.289062 2.992188 -1.15625 2.640625 -1.09375 C 2.222656 -1.019531 1.800781 -1.003906 1.375 -1.046875 C 0.851562 -1.109375 0.460938 -1.320312 0.203125 -1.6875 C -0.046875 -2.050781 -0.144531 -2.460938 -0.09375 -2.921875 C -0.0195312 -3.429688 0.207031 -3.835938 0.59375 -4.140625 C 0.988281 -4.441406 1.4375 -4.550781 1.9375 -4.46875 C 2.25 -4.4375 2.53125 -4.328125 2.78125 -4.140625 C 3.050781 -3.921875 3.171875 -3.664062 3.140625 -3.375 C 3.117188 -3.09375 2.953125 -2.875 2.640625 -2.71875 C 2.472656 -2.644531 2.289062 -2.597656 2.09375 -2.578125 C 1.894531 -2.554688 1.664062 -2.554688 1.40625 -2.578125 C 1.40625 -2.578125 1.394531 -2.578125 1.375 -2.578125 C 1.363281 -2.578125 1.34375 -2.578125 1.3125 -2.578125 C 1.289062 -2.578125 1.265625 -2.578125 1.234375 -2.578125 C 1.148438 -2.578125 1.097656 -2.554688 1.078125 -2.515625 C 1.054688 -2.472656 1.054688 -2.414062 1.078125 -2.34375 C 1.222656 -1.988281 1.503906 -1.800781 1.921875 -1.78125 C 2.347656 -1.757812 2.828125 -1.835938 3.359375 -2.015625 C 3.898438 -2.191406 4.410156 -2.398438 4.890625 -2.640625 C 5.378906 -2.878906 5.753906 -3.082031 6.015625 -3.25 Z M 1.390625 -3.671875 C 1.328125 -3.617188 1.28125 -3.5625 1.25 -3.5 C 1.226562 -3.4375 1.210938 -3.378906 1.203125 -3.328125 C 1.203125 -3.285156 1.210938 -3.257812 1.234375 -3.25 C 1.253906 -3.25 1.304688 -3.238281 1.390625 -3.21875 C 1.484375 -3.207031 1.585938 -3.207031 1.703125 -3.21875 C 1.816406 -3.226562 1.910156 -3.25 1.984375 -3.28125 C 2.054688 -3.320312 2.082031 -3.390625 2.0625 -3.484375 C 2.007812 -3.617188 1.910156 -3.703125 1.765625 -3.734375 C 1.628906 -3.773438 1.503906 -3.753906 1.390625 -3.671875 Z M 1.390625 -3.671875 "/></g></g></g><g fill="#d9d9d9" fill-opacity="1"><g transform="translate(87.471733, 26.205076)"><g><path d="M 6.03125 -3.3125 C 6.082031 -3.300781 6.113281 -3.285156 6.125 -3.265625 C 6.144531 -3.253906 6.171875 -3.21875 6.203125 -3.15625 C 6.210938 -3.101562 6.1875 -3.035156 6.125 -2.953125 C 6.070312 -2.867188 6.023438 -2.804688 5.984375 -2.765625 C 5.617188 -2.421875 5.195312 -2.21875 4.71875 -2.15625 C 4.4375 -2.113281 4.15625 -2.101562 3.875 -2.125 C 3.601562 -2.144531 3.332031 -2.210938 3.0625 -2.328125 C 2.875 -2.421875 2.695312 -2.390625 2.53125 -2.234375 C 2.175781 -1.921875 1.8125 -1.617188 1.4375 -1.328125 C 1.238281 -1.179688 1.03125 -1.0625 0.8125 -0.96875 C 0.601562 -0.875 0.375 -0.816406 0.125 -0.796875 C -0.601562 -0.816406 -0.890625 -1.175781 -0.734375 -1.875 C -0.722656 -1.90625 -0.710938 -1.929688 -0.703125 -1.953125 C -0.492188 -2.523438 -0.21875 -3.039062 0.125 -3.5 C 0.476562 -3.957031 0.921875 -4.335938 1.453125 -4.640625 C 1.804688 -4.847656 2.179688 -4.929688 2.578125 -4.890625 C 2.691406 -4.867188 2.796875 -4.828125 2.890625 -4.765625 C 3.003906 -4.710938 3.050781 -4.617188 3.03125 -4.484375 C 3.019531 -4.453125 3 -4.421875 2.96875 -4.390625 C 2.945312 -4.359375 2.921875 -4.328125 2.890625 -4.296875 C 2.867188 -4.273438 2.84375 -4.257812 2.8125 -4.25 C 2.789062 -4.25 2.765625 -4.25 2.734375 -4.25 C 2.441406 -4.238281 2.191406 -4.148438 1.984375 -3.984375 C 1.773438 -3.828125 1.582031 -3.648438 1.40625 -3.453125 C 1.21875 -3.234375 1.039062 -2.992188 0.875 -2.734375 C 0.707031 -2.472656 0.570312 -2.164062 0.46875 -1.8125 C 0.851562 -2.03125 1.15625 -2.25 1.375 -2.46875 C 1.425781 -2.519531 1.472656 -2.566406 1.515625 -2.609375 C 1.554688 -2.640625 1.597656 -2.671875 1.640625 -2.703125 C 1.835938 -2.890625 2.039062 -3.050781 2.25 -3.1875 C 2.488281 -3.320312 2.726562 -3.390625 2.96875 -3.390625 C 3.207031 -3.390625 3.4375 -3.289062 3.65625 -3.09375 C 3.96875 -2.820312 4.265625 -2.71875 4.546875 -2.78125 C 4.835938 -2.84375 5.109375 -2.941406 5.359375 -3.078125 C 5.617188 -3.234375 5.84375 -3.3125 6.03125 -3.3125 Z M 6.03125 -3.3125 "/></g></g></g><g fill="#d9d9d9" fill-opacity="1"><g transform="translate(93.04895, 26.205076)"><g><path d="M 8.265625 -3.328125 C 8.328125 -3.316406 8.367188 -3.296875 8.390625 -3.265625 C 8.410156 -3.242188 8.425781 -3.203125 8.4375 -3.140625 C 8.4375 -2.992188 8.300781 -2.828125 8.03125 -2.640625 C 7.769531 -2.453125 7.484375 -2.273438 7.171875 -2.109375 C 6.859375 -1.953125 6.632812 -1.851562 6.5 -1.8125 C 6.050781 -1.644531 5.613281 -1.585938 5.1875 -1.640625 C 4.757812 -1.691406 4.382812 -1.914062 4.0625 -2.3125 C 3.851562 -2.59375 3.695312 -2.71875 3.59375 -2.6875 C 3.5 -2.664062 3.378906 -2.546875 3.234375 -2.328125 C 3.078125 -2.078125 2.820312 -1.78125 2.46875 -1.4375 C 2.0625 -1.132812 1.679688 -0.992188 1.328125 -1.015625 C 0.972656 -1.035156 0.675781 -1.171875 0.4375 -1.421875 C 0.195312 -1.679688 0.0390625 -2.007812 -0.03125 -2.40625 C -0.101562 -2.8125 -0.0664062 -3.238281 0.078125 -3.6875 C 0.210938 -4.050781 0.484375 -4.203125 0.890625 -4.140625 C 0.992188 -4.117188 1.078125 -4.070312 1.140625 -4 C 1.203125 -3.925781 1.21875 -3.835938 1.1875 -3.734375 C 1.101562 -3.378906 1.070312 -3.019531 1.09375 -2.65625 C 1.082031 -2.425781 1.125 -2.210938 1.21875 -2.015625 C 1.3125 -1.835938 1.441406 -1.804688 1.609375 -1.921875 C 1.785156 -2.035156 1.957031 -2.203125 2.125 -2.421875 C 2.289062 -2.648438 2.425781 -2.835938 2.53125 -2.984375 C 2.539062 -3.015625 2.554688 -3.046875 2.578125 -3.078125 C 2.617188 -3.128906 2.660156 -3.1875 2.703125 -3.25 C 2.816406 -3.425781 2.941406 -3.597656 3.078125 -3.765625 C 3.304688 -4.035156 3.601562 -4.148438 3.96875 -4.109375 C 4.269531 -4.097656 4.484375 -3.945312 4.609375 -3.65625 C 4.859375 -3.007812 5.226562 -2.65625 5.71875 -2.59375 C 6.207031 -2.53125 6.738281 -2.679688 7.3125 -3.046875 C 7.457031 -3.160156 7.601562 -3.242188 7.75 -3.296875 C 7.90625 -3.359375 8.078125 -3.367188 8.265625 -3.328125 Z M 8.265625 -3.328125 "/></g></g></g><g fill="#d9d9d9" fill-opacity="1"><g transform="translate(100.562059, 26.205076)"><g><path d="M 5.21875 -3.25 C 5.3125 -3.332031 5.382812 -3.359375 5.4375 -3.328125 C 5.488281 -3.304688 5.519531 -3.257812 5.53125 -3.1875 C 5.550781 -3.113281 5.5625 -3.046875 5.5625 -2.984375 C 5.5625 -2.847656 5.535156 -2.71875 5.484375 -2.59375 C 5.441406 -2.476562 5.414062 -2.398438 5.40625 -2.359375 C 5.382812 -2.347656 5.375 -2.34375 5.375 -2.34375 C 5.25 -2.007812 5.039062 -1.675781 4.75 -1.34375 C 4.46875 -1.007812 4.132812 -0.742188 3.75 -0.546875 C 3.363281 -0.347656 2.953125 -0.257812 2.515625 -0.28125 C 1.898438 -0.351562 1.410156 -0.585938 1.046875 -0.984375 C 0.679688 -1.390625 0.40625 -1.867188 0.21875 -2.421875 C 0.0390625 -2.972656 -0.0703125 -3.519531 -0.125 -4.0625 C -0.289062 -5.40625 -0.34375 -6.75 -0.28125 -8.09375 C -0.257812 -8.425781 -0.25 -8.757812 -0.25 -9.09375 C -0.25 -9.207031 -0.25 -9.320312 -0.25 -9.4375 C -0.25 -9.644531 -0.347656 -9.75 -0.546875 -9.75 C -0.765625 -9.75 -0.976562 -9.753906 -1.1875 -9.765625 C -1.414062 -9.765625 -1.65625 -9.765625 -1.90625 -9.765625 C -1.925781 -9.765625 -1.957031 -9.765625 -2 -9.765625 C -2.164062 -9.753906 -2.320312 -9.785156 -2.46875 -9.859375 C -2.53125 -9.890625 -2.582031 -9.929688 -2.625 -9.984375 C -2.675781 -10.035156 -2.703125 -10.097656 -2.703125 -10.171875 C -2.691406 -10.253906 -2.660156 -10.316406 -2.609375 -10.359375 C -2.554688 -10.398438 -2.488281 -10.421875 -2.40625 -10.421875 C -2.125 -10.429688 -1.84375 -10.4375 -1.5625 -10.4375 C -1.394531 -10.4375 -1.226562 -10.4375 -1.0625 -10.4375 C -0.832031 -10.4375 -0.609375 -10.445312 -0.390625 -10.46875 C -0.265625 -10.476562 -0.1875 -10.550781 -0.15625 -10.6875 C -0.132812 -10.84375 -0.117188 -11.003906 -0.109375 -11.171875 C -0.078125 -11.703125 -0.0390625 -12.234375 0 -12.765625 C 0.03125 -13.140625 0.0546875 -13.503906 0.078125 -13.859375 C 0.078125 -13.867188 0.078125 -13.878906 0.078125 -13.890625 C 0.078125 -13.960938 0.0859375 -14.035156 0.109375 -14.109375 C 0.179688 -14.410156 0.382812 -14.554688 0.71875 -14.546875 C 1.007812 -14.523438 1.171875 -14.363281 1.203125 -14.0625 C 1.210938 -13.863281 1.210938 -13.664062 1.203125 -13.46875 C 1.203125 -13.382812 1.203125 -13.300781 1.203125 -13.21875 C 1.203125 -13.21875 1.195312 -13.21875 1.1875 -13.21875 C 1.175781 -13 1.164062 -12.773438 1.15625 -12.546875 C 1.113281 -12.046875 1.085938 -11.539062 1.078125 -11.03125 C 1.054688 -10.757812 1.078125 -10.585938 1.140625 -10.515625 C 1.210938 -10.453125 1.394531 -10.425781 1.6875 -10.4375 C 2.226562 -10.425781 2.769531 -10.421875 3.3125 -10.421875 C 3.695312 -10.421875 4.082031 -10.414062 4.46875 -10.40625 C 4.507812 -10.40625 4.546875 -10.40625 4.578125 -10.40625 C 4.671875 -10.414062 4.757812 -10.410156 4.84375 -10.390625 C 4.9375 -10.378906 5.03125 -10.347656 5.125 -10.296875 C 5.144531 -10.273438 5.164062 -10.25 5.1875 -10.21875 C 5.21875 -10.1875 5.238281 -10.148438 5.25 -10.109375 C 5.25 -10.054688 5.234375 -10.015625 5.203125 -9.984375 C 5.171875 -9.953125 5.144531 -9.929688 5.125 -9.921875 C 4.945312 -9.816406 4.757812 -9.773438 4.5625 -9.796875 C 4.539062 -9.796875 4.507812 -9.796875 4.46875 -9.796875 C 3.882812 -9.796875 3.3125 -9.789062 2.75 -9.78125 C 2.425781 -9.769531 2.097656 -9.765625 1.765625 -9.765625 C 1.742188 -9.765625 1.726562 -9.765625 1.71875 -9.765625 C 1.570312 -9.765625 1.421875 -9.757812 1.265625 -9.75 C 1.109375 -9.726562 1.015625 -9.644531 0.984375 -9.5 C 0.960938 -9.40625 0.953125 -9.316406 0.953125 -9.234375 C 0.921875 -8.378906 0.90625 -7.523438 0.90625 -6.671875 C 0.914062 -5.816406 0.972656 -4.96875 1.078125 -4.125 C 1.160156 -3.445312 1.335938 -2.800781 1.609375 -2.1875 C 1.753906 -1.84375 1.929688 -1.570312 2.140625 -1.375 C 2.347656 -1.1875 2.582031 -1.109375 2.84375 -1.140625 C 3.320312 -1.222656 3.691406 -1.394531 3.953125 -1.65625 C 4.222656 -1.925781 4.453125 -2.210938 4.640625 -2.515625 C 4.816406 -2.816406 5.007812 -3.0625 5.21875 -3.25 Z M 5.21875 -3.25 "/></g></g></g><g fill="#d9d9d9" fill-opacity="1"><g transform="translate(105.375456, 26.205076)"><g><path d="M 7.046875 -3.34375 C 7.128906 -3.320312 7.1875 -3.265625 7.21875 -3.171875 C 7.257812 -3.085938 7.25 -3.015625 7.1875 -2.953125 C 6.789062 -2.535156 6.363281 -2.132812 5.90625 -1.75 C 5.46875 -1.375 5.035156 -0.976562 4.609375 -0.5625 C 4.359375 -0.289062 4.210938 0.0234375 4.171875 0.390625 C 4.160156 0.453125 4.15625 0.515625 4.15625 0.578125 C 4.050781 1.515625 3.910156 2.535156 3.734375 3.640625 C 3.554688 4.753906 3.289062 5.828125 2.9375 6.859375 C 2.59375 7.890625 2.117188 8.757812 1.515625 9.46875 C 1.328125 9.695312 1.109375 9.867188 0.859375 9.984375 C 0.617188 10.097656 0.347656 10.144531 0.046875 10.125 C -0.617188 10.0625 -1.050781 9.8125 -1.25 9.375 C -1.457031 8.945312 -1.492188 8.398438 -1.359375 7.734375 C -1.222656 7.066406 -0.984375 6.347656 -0.640625 5.578125 C -0.296875 4.816406 0.0820312 4.070312 0.5 3.34375 C 0.925781 2.625 1.328125 1.988281 1.703125 1.4375 C 2.085938 0.894531 2.382812 0.503906 2.59375 0.265625 C 2.9375 -0.0976562 3.113281 -0.519531 3.125 -1 C 3.144531 -1.1875 3.160156 -1.378906 3.171875 -1.578125 C 3.210938 -1.921875 3.238281 -2.304688 3.25 -2.734375 C 3.113281 -2.640625 2.992188 -2.554688 2.890625 -2.484375 C 2.710938 -2.359375 2.550781 -2.253906 2.40625 -2.171875 C 1.976562 -1.921875 1.519531 -1.847656 1.03125 -1.953125 C 0.65625 -2.054688 0.390625 -2.265625 0.234375 -2.578125 C 0.078125 -2.890625 0 -3.238281 0 -3.625 C 0.0078125 -4.019531 0.0820312 -4.367188 0.21875 -4.671875 C 0.300781 -4.859375 0.441406 -4.976562 0.640625 -5.03125 C 0.835938 -5.082031 1.03125 -5.054688 1.21875 -4.953125 C 1.25 -4.929688 1.273438 -4.898438 1.296875 -4.859375 C 1.316406 -4.816406 1.320312 -4.773438 1.3125 -4.734375 C 1.3125 -4.640625 1.289062 -4.546875 1.25 -4.453125 C 1.226562 -4.390625 1.210938 -4.328125 1.203125 -4.265625 C 1.097656 -3.816406 1.128906 -3.375 1.296875 -2.9375 C 1.398438 -2.664062 1.570312 -2.625 1.8125 -2.8125 C 2.21875 -3.15625 2.5625 -3.554688 2.84375 -4.015625 C 2.925781 -4.148438 3.003906 -4.285156 3.078125 -4.421875 C 3.109375 -4.472656 3.140625 -4.53125 3.171875 -4.59375 C 3.367188 -4.882812 3.632812 -5.007812 3.96875 -4.96875 C 4.34375 -4.945312 4.53125 -4.753906 4.53125 -4.390625 C 4.519531 -3.878906 4.503906 -3.378906 4.484375 -2.890625 C 4.472656 -2.660156 4.460938 -2.429688 4.453125 -2.203125 C 4.429688 -2.003906 4.445312 -1.882812 4.5 -1.84375 C 4.550781 -1.8125 4.660156 -1.863281 4.828125 -2 C 4.929688 -2.082031 5.035156 -2.164062 5.140625 -2.25 C 5.523438 -2.550781 5.898438 -2.851562 6.265625 -3.15625 C 6.503906 -3.351562 6.765625 -3.414062 7.046875 -3.34375 Z M 0.59375 8.984375 C 0.96875 8.515625 1.316406 7.832031 1.640625 6.9375 C 1.960938 6.050781 2.226562 5.128906 2.4375 4.171875 C 2.644531 3.210938 2.757812 2.410156 2.78125 1.765625 C 2.625 1.796875 2.441406 1.972656 2.234375 2.296875 C 2.023438 2.617188 1.804688 3.023438 1.578125 3.515625 C 1.347656 4.015625 1.117188 4.535156 0.890625 5.078125 C 0.859375 5.179688 0.78125 5.425781 0.65625 5.8125 C 0.53125 6.207031 0.398438 6.65625 0.265625 7.15625 C 0.140625 7.65625 0.046875 8.109375 -0.015625 8.515625 C -0.0859375 8.921875 -0.0820312 9.1875 0 9.3125 C 0.0820312 9.4375 0.28125 9.328125 0.59375 8.984375 Z M 0.59375 8.984375 "/></g></g></g><g clip-path="url(#4369c91271)"><path fill="#737373" d="M 69.375 28.117188 C 69.707031 25.984375 69.125 23.851562 68.835938 22.882812 C 68.546875 21.914062 67.804688 19.96875 67.804688 19.96875 C 67.015625 19.703125 66.164062 20.03125 66.164062 20.03125 C 66.164062 20.03125 66.582031 21.6875 66.46875 22.007812 C 66.359375 22.332031 65.113281 21.140625 65.113281 21.140625 C 63.953125 24.90625 67.101562 27.046875 67.101562 27.046875 C 67.101562 27.046875 65.351562 26.175781 64.714844 24.1875 C 64.359375 23.078125 64.589844 21.097656 65.042969 20.578125 C 65.554688 20 65.894531 19.632812 67.460938 19.648438 C 68.566406 19.65625 69.289062 19.574219 69.648438 19.402344 C 69.746094 19.355469 69.738281 19.210938 69.632812 19.179688 C 68.976562 18.972656 67.289062 18.449219 66.957031 18.398438 C 66.65625 18.355469 65.46875 18.574219 64.816406 18.703125 C 64.539062 18.761719 64.289062 18.902344 64.101562 19.109375 L 62.730469 21.289062 L 63.886719 18.84375 C 64.0625 18.59375 64.324219 18.417969 64.621094 18.34375 C 65.128906 18.214844 65.464844 18.058594 65.988281 17.96875 C 65.957031 18.089844 65.941406 18.230469 65.9375 18.378906 C 66.371094 18.308594 66.765625 18.261719 66.917969 18.285156 C 66.921875 18.285156 66.921875 18.285156 66.921875 18.285156 C 66.835938 18.140625 66.746094 18.007812 66.65625 17.898438 C 66.929688 17.886719 67.25 17.886719 67.640625 17.910156 C 69.03125 17.992188 69.710938 17.929688 70.035156 17.714844 C 70.140625 17.640625 70.113281 17.476562 69.988281 17.4375 C 69.074219 17.148438 67.464844 16.335938 67.058594 16.433594 C 66.609375 16.539062 63.835938 16.761719 63.15625 16.800781 C 62.46875 16.835938 61.503906 20.183594 60.738281 21.898438 C 59.96875 23.617188 60.355469 24.332031 62.46875 26.820312 C 66.488281 31.5625 64.1875 35.5625 64.1875 35.5625 C 64.1875 35.5625 68.761719 32.019531 69.375 28.117188 " fill-opacity="1" fill-rule="nonzero"/></g><path fill="#737373" d="M 63.023438 16.644531 L 64.289062 16.511719 C 64.289062 16.511719 64.695312 15.554688 66.503906 15.007812 C 67.53125 14.699219 68.449219 14.445312 68.902344 14.070312 C 69.058594 13.941406 68.976562 13.683594 68.773438 13.667969 C 67.976562 13.59375 66.472656 13.488281 65.96875 13.652344 C 65.269531 13.878906 63.402344 14.867188 62.734375 15.386719 C 62.0625 15.90625 61.453125 19.730469 61.453125 19.730469 L 62.402344 17.148438 C 62.503906 16.878906 62.738281 16.6875 63.023438 16.644531 " fill-opacity="1" fill-rule="nonzero"/><path fill="#737373" d="M 64.855469 10.324219 C 64.386719 10.554688 63.617188 12.65625 63.324219 13.148438 C 63.03125 13.640625 62.652344 15.113281 62.652344 15.113281 L 64.445312 14.089844 C 65.378906 12.195312 65.320312 10.097656 64.855469 10.324219 " fill-opacity="1" fill-rule="nonzero"/><g clip-path="url(#e0e7b4196a)"><path fill="#737373" d="M 68.007812 5.621094 L 67.785156 6.527344 C 67.660156 7.019531 67.824219 7.535156 68.210938 7.863281 L 68.921875 8.480469 L 68.003906 8.253906 C 67.511719 8.132812 66.992188 8.296875 66.65625 8.675781 L 66.039062 9.382812 L 66.265625 8.472656 C 66.386719 7.984375 66.222656 7.46875 65.839844 7.136719 L 65.128906 6.523438 L 66.042969 6.75 C 66.535156 6.867188 67.054688 6.707031 67.390625 6.324219 L 68.007812 5.621094 " fill-opacity="1" fill-rule="nonzero"/></g><g clip-path="url(#04969b5d10)"><path fill="#737373" d="M 69.542969 10.492188 L 69.402344 11.050781 C 69.328125 11.351562 69.429688 11.667969 69.664062 11.871094 L 70.101562 12.246094 L 69.539062 12.109375 C 69.234375 12.035156 68.917969 12.136719 68.710938 12.371094 L 68.332031 12.804688 L 68.46875 12.246094 C 68.542969 11.945312 68.441406 11.628906 68.207031 11.425781 L 67.769531 11.046875 L 68.332031 11.183594 C 68.636719 11.257812 68.957031 11.160156 69.160156 10.925781 L 69.542969 10.492188 " fill-opacity="1" fill-rule="nonzero"/></g><g clip-path="url(#cbae31f433)"><path fill="#737373" d="M 61.972656 10.445312 L 61.863281 10.886719 C 61.804688 11.121094 61.882812 11.371094 62.066406 11.53125 L 62.410156 11.828125 L 61.96875 11.71875 C 61.730469 11.660156 61.480469 11.738281 61.320312 11.921875 L 61.019531 12.261719 L 61.128906 11.824219 C 61.1875 11.589844 61.109375 11.339844 60.925781 11.179688 L 60.582031 10.882812 L 61.023438 10.992188 C 61.261719 11.050781 61.511719 10.972656 61.671875 10.789062 L 61.972656 10.445312 " fill-opacity="1" fill-rule="nonzero"/></g><path fill="#737373" d="M 62.632812 6.96875 L 62.546875 7.3125 C 62.5 7.5 62.5625 7.695312 62.707031 7.820312 L 62.976562 8.050781 L 62.628906 7.96875 C 62.441406 7.921875 62.246094 7.984375 62.117188 8.128906 L 61.882812 8.394531 L 61.96875 8.050781 C 62.015625 7.863281 61.953125 7.667969 61.808594 7.542969 L 61.539062 7.3125 L 61.886719 7.394531 C 62.074219 7.441406 62.269531 7.378906 62.394531 7.234375 L 62.632812 6.96875 " fill-opacity="1" fill-rule="nonzero"/><g fill="#ffffff" fill-opacity="1"><g transform="translate(53.07785, 2.319939)"><g><path d="M 2.671875 0.671875 C 2.679688 0.679688 2.6875 0.6875 2.6875 0.6875 C 2.695312 0.695312 2.703125 0.707031 2.703125 0.71875 C 2.703125 0.726562 2.695312 0.734375 2.6875 0.734375 C 2.6875 0.742188 2.679688 0.75 2.671875 0.75 C 2.648438 0.75 2.632812 0.75 2.625 0.75 C 2.53125 0.726562 2.4375 0.710938 2.34375 0.703125 C 2.25 0.703125 2.15625 0.703125 2.0625 0.703125 C 2.050781 0.703125 2.039062 0.703125 2.03125 0.703125 C 1.96875 0.703125 1.90625 0.695312 1.84375 0.6875 C 1.769531 0.6875 1.691406 0.6875 1.609375 0.6875 C 1.515625 0.6875 1.414062 0.6875 1.3125 0.6875 C 1.207031 0.6875 1.101562 0.691406 1 0.703125 C 0.988281 0.703125 0.976562 0.703125 0.96875 0.703125 C 0.96875 0.703125 0.960938 0.703125 0.953125 0.703125 C 0.910156 0.710938 0.878906 0.734375 0.859375 0.765625 C 0.847656 0.785156 0.832031 0.804688 0.8125 0.828125 C 0.8125 0.828125 0.804688 0.832031 0.796875 0.84375 C 0.742188 0.894531 0.679688 0.929688 0.609375 0.953125 C 0.546875 0.972656 0.476562 0.976562 0.40625 0.96875 C 0.375 0.96875 0.347656 0.957031 0.328125 0.9375 C 0.273438 0.914062 0.25 0.890625 0.25 0.859375 C 0.25 0.828125 0.269531 0.796875 0.3125 0.765625 C 0.351562 0.734375 0.40625 0.710938 0.46875 0.703125 C 0.53125 0.691406 0.597656 0.675781 0.671875 0.65625 C 0.671875 0.65625 0.675781 0.65625 0.6875 0.65625 C 0.71875 0.65625 0.738281 0.648438 0.75 0.640625 C 0.769531 0.640625 0.78125 0.628906 0.78125 0.609375 C 0.789062 0.597656 0.800781 0.582031 0.8125 0.5625 C 0.820312 0.550781 0.828125 0.539062 0.828125 0.53125 C 0.867188 0.445312 0.898438 0.363281 0.921875 0.28125 C 0.941406 0.207031 0.957031 0.128906 0.96875 0.046875 C 1.0625 -0.378906 1.117188 -0.8125 1.140625 -1.25 C 1.140625 -1.363281 1.132812 -1.476562 1.125 -1.59375 C 1.125 -1.707031 1.113281 -1.816406 1.09375 -1.921875 C 1.09375 -1.972656 1.082031 -2.019531 1.0625 -2.0625 C 1.039062 -2.09375 1.015625 -2.113281 0.984375 -2.125 C 0.960938 -2.132812 0.929688 -2.132812 0.890625 -2.125 C 0.804688 -2.101562 0.734375 -2.066406 0.671875 -2.015625 C 0.535156 -1.921875 0.425781 -1.8125 0.34375 -1.6875 C 0.257812 -1.5625 0.195312 -1.414062 0.15625 -1.25 C 0.132812 -1.1875 0.128906 -1.117188 0.140625 -1.046875 C 0.148438 -0.992188 0.164062 -0.945312 0.1875 -0.90625 C 0.21875 -0.863281 0.257812 -0.828125 0.3125 -0.796875 C 0.320312 -0.796875 0.332031 -0.789062 0.34375 -0.78125 C 0.351562 -0.78125 0.351562 -0.773438 0.34375 -0.765625 C 0.34375 -0.753906 0.34375 -0.75 0.34375 -0.75 C 0.320312 -0.738281 0.300781 -0.734375 0.28125 -0.734375 C 0.226562 -0.734375 0.179688 -0.753906 0.140625 -0.796875 C 0.0859375 -0.835938 0.0507812 -0.890625 0.03125 -0.953125 C 0.0078125 -1.015625 0 -1.082031 0 -1.15625 C 0.0078125 -1.25 0.0351562 -1.34375 0.078125 -1.4375 C 0.128906 -1.582031 0.203125 -1.710938 0.296875 -1.828125 C 0.398438 -1.953125 0.523438 -2.054688 0.671875 -2.140625 C 0.710938 -2.160156 0.753906 -2.175781 0.796875 -2.1875 C 0.847656 -2.207031 0.90625 -2.21875 0.96875 -2.21875 C 1.03125 -2.21875 1.082031 -2.203125 1.125 -2.171875 C 1.164062 -2.148438 1.195312 -2.113281 1.21875 -2.0625 C 1.238281 -2 1.253906 -1.9375 1.265625 -1.875 C 1.273438 -1.757812 1.285156 -1.640625 1.296875 -1.515625 C 1.296875 -1.328125 1.285156 -1.140625 1.265625 -0.953125 C 1.253906 -0.773438 1.234375 -0.59375 1.203125 -0.40625 C 1.191406 -0.289062 1.175781 -0.175781 1.15625 -0.0625 C 1.132812 0.0507812 1.109375 0.164062 1.078125 0.28125 C 1.046875 0.375 1.007812 0.472656 0.96875 0.578125 C 0.957031 0.609375 0.96875 0.617188 1 0.609375 C 1.039062 0.609375 1.078125 0.609375 1.109375 0.609375 C 1.148438 0.609375 1.191406 0.609375 1.234375 0.609375 C 1.316406 0.609375 1.398438 0.609375 1.484375 0.609375 C 1.523438 0.609375 1.5625 0.609375 1.59375 0.609375 C 1.925781 0.609375 2.265625 0.625 2.609375 0.65625 C 2.628906 0.664062 2.648438 0.671875 2.671875 0.671875 Z M 0.65625 0.8125 C 0.65625 0.8125 0.65625 0.804688 0.65625 0.796875 C 0.664062 0.796875 0.671875 0.789062 0.671875 0.78125 C 0.671875 0.769531 0.671875 0.765625 0.671875 0.765625 C 0.671875 0.765625 0.664062 0.765625 0.65625 0.765625 C 0.582031 0.765625 0.507812 0.785156 0.4375 0.828125 C 0.425781 0.835938 0.414062 0.84375 0.40625 0.84375 C 0.40625 0.851562 0.410156 0.859375 0.421875 0.859375 C 0.441406 0.878906 0.460938 0.890625 0.484375 0.890625 C 0.515625 0.890625 0.546875 0.878906 0.578125 0.859375 C 0.609375 0.835938 0.632812 0.820312 0.65625 0.8125 Z M 0.65625 0.8125 "/></g></g></g><g fill="#ffffff" fill-opacity="1"><g transform="translate(54.684046, 2.319939)"><g><path d="M 0.75 -0.421875 C 0.757812 -0.410156 0.765625 -0.40625 0.765625 -0.40625 C 0.765625 -0.40625 0.769531 -0.398438 0.78125 -0.390625 C 0.78125 -0.390625 0.773438 -0.382812 0.765625 -0.375 C 0.753906 -0.363281 0.75 -0.351562 0.75 -0.34375 C 0.707031 -0.300781 0.65625 -0.273438 0.59375 -0.265625 C 0.550781 -0.265625 0.515625 -0.265625 0.484375 -0.265625 C 0.453125 -0.265625 0.421875 -0.273438 0.390625 -0.296875 C 0.359375 -0.304688 0.332031 -0.300781 0.3125 -0.28125 C 0.269531 -0.238281 0.222656 -0.203125 0.171875 -0.171875 C 0.148438 -0.148438 0.125 -0.132812 0.09375 -0.125 C 0.0703125 -0.113281 0.046875 -0.101562 0.015625 -0.09375 C -0.078125 -0.101562 -0.113281 -0.148438 -0.09375 -0.234375 C -0.09375 -0.234375 -0.09375 -0.238281 -0.09375 -0.25 C -0.0625 -0.3125 -0.0234375 -0.367188 0.015625 -0.421875 C 0.0546875 -0.484375 0.113281 -0.535156 0.1875 -0.578125 C 0.226562 -0.609375 0.273438 -0.617188 0.328125 -0.609375 C 0.335938 -0.609375 0.347656 -0.601562 0.359375 -0.59375 C 0.378906 -0.582031 0.382812 -0.570312 0.375 -0.5625 C 0.375 -0.550781 0.367188 -0.546875 0.359375 -0.546875 C 0.359375 -0.546875 0.359375 -0.539062 0.359375 -0.53125 C 0.359375 -0.53125 0.351562 -0.53125 0.34375 -0.53125 C 0.300781 -0.53125 0.265625 -0.519531 0.234375 -0.5 C 0.210938 -0.476562 0.191406 -0.457031 0.171875 -0.4375 C 0.148438 -0.40625 0.128906 -0.375 0.109375 -0.34375 C 0.0859375 -0.3125 0.0703125 -0.269531 0.0625 -0.21875 C 0.101562 -0.25 0.140625 -0.28125 0.171875 -0.3125 C 0.179688 -0.3125 0.1875 -0.316406 0.1875 -0.328125 C 0.195312 -0.328125 0.203125 -0.332031 0.203125 -0.34375 C 0.222656 -0.363281 0.25 -0.378906 0.28125 -0.390625 C 0.3125 -0.410156 0.34375 -0.421875 0.375 -0.421875 C 0.40625 -0.421875 0.429688 -0.410156 0.453125 -0.390625 C 0.492188 -0.359375 0.53125 -0.34375 0.5625 -0.34375 C 0.601562 -0.351562 0.640625 -0.367188 0.671875 -0.390625 C 0.703125 -0.410156 0.726562 -0.421875 0.75 -0.421875 Z M 0.75 -0.421875 "/></g></g></g><g fill="#ffffff" fill-opacity="1"><g transform="translate(55.384226, 2.319939)"><g><path d="M 0.734375 -0.390625 C 0.753906 -0.410156 0.769531 -0.414062 0.78125 -0.40625 C 0.800781 -0.40625 0.8125 -0.394531 0.8125 -0.375 C 0.820312 -0.351562 0.816406 -0.332031 0.796875 -0.3125 C 0.765625 -0.269531 0.722656 -0.222656 0.671875 -0.171875 C 0.617188 -0.117188 0.5625 -0.0703125 0.5 -0.03125 C 0.4375 0 0.375 0.0195312 0.3125 0.03125 C 0.195312 0.03125 0.144531 -0.0234375 0.15625 -0.140625 C 0.15625 -0.148438 0.15625 -0.171875 0.15625 -0.203125 C 0.164062 -0.222656 0.171875 -0.242188 0.171875 -0.265625 C 0.171875 -0.296875 0.171875 -0.316406 0.171875 -0.328125 C 0.160156 -0.328125 0.148438 -0.328125 0.140625 -0.328125 C 0.128906 -0.328125 0.117188 -0.328125 0.109375 -0.328125 C 0.0976562 -0.328125 0.0859375 -0.328125 0.078125 -0.328125 C 0.0234375 -0.335938 -0.00390625 -0.367188 -0.015625 -0.421875 C -0.015625 -0.484375 0 -0.550781 0.03125 -0.625 C 0.0390625 -0.644531 0.0546875 -0.65625 0.078125 -0.65625 C 0.0976562 -0.664062 0.117188 -0.664062 0.140625 -0.65625 C 0.160156 -0.644531 0.171875 -0.632812 0.171875 -0.625 C 0.160156 -0.601562 0.15625 -0.582031 0.15625 -0.5625 C 0.15625 -0.550781 0.148438 -0.539062 0.140625 -0.53125 C 0.128906 -0.476562 0.128906 -0.453125 0.140625 -0.453125 C 0.160156 -0.453125 0.1875 -0.46875 0.21875 -0.5 C 0.25 -0.519531 0.28125 -0.523438 0.3125 -0.515625 C 0.351562 -0.515625 0.367188 -0.492188 0.359375 -0.453125 C 0.347656 -0.421875 0.34375 -0.390625 0.34375 -0.359375 C 0.320312 -0.296875 0.304688 -0.226562 0.296875 -0.15625 C 0.296875 -0.113281 0.304688 -0.0859375 0.328125 -0.078125 C 0.347656 -0.078125 0.375 -0.0820312 0.40625 -0.09375 C 0.4375 -0.113281 0.46875 -0.132812 0.5 -0.15625 C 0.539062 -0.1875 0.570312 -0.210938 0.59375 -0.234375 C 0.625 -0.265625 0.644531 -0.285156 0.65625 -0.296875 C 0.65625 -0.304688 0.660156 -0.316406 0.671875 -0.328125 C 0.679688 -0.335938 0.691406 -0.347656 0.703125 -0.359375 C 0.710938 -0.367188 0.722656 -0.378906 0.734375 -0.390625 Z M 0.734375 -0.390625 "/></g></g></g><g fill="#ffffff" fill-opacity="1"><g transform="translate(56.097632, 2.319939)"><g><path d="M 0.75 -0.421875 C 0.757812 -0.410156 0.765625 -0.40625 0.765625 -0.40625 C 0.765625 -0.40625 0.769531 -0.398438 0.78125 -0.390625 C 0.78125 -0.390625 0.773438 -0.382812 0.765625 -0.375 C 0.753906 -0.363281 0.75 -0.351562 0.75 -0.34375 C 0.707031 -0.300781 0.65625 -0.273438 0.59375 -0.265625 C 0.550781 -0.265625 0.515625 -0.265625 0.484375 -0.265625 C 0.453125 -0.265625 0.421875 -0.273438 0.390625 -0.296875 C 0.359375 -0.304688 0.332031 -0.300781 0.3125 -0.28125 C 0.269531 -0.238281 0.222656 -0.203125 0.171875 -0.171875 C 0.148438 -0.148438 0.125 -0.132812 0.09375 -0.125 C 0.0703125 -0.113281 0.046875 -0.101562 0.015625 -0.09375 C -0.078125 -0.101562 -0.113281 -0.148438 -0.09375 -0.234375 C -0.09375 -0.234375 -0.09375 -0.238281 -0.09375 -0.25 C -0.0625 -0.3125 -0.0234375 -0.367188 0.015625 -0.421875 C 0.0546875 -0.484375 0.113281 -0.535156 0.1875 -0.578125 C 0.226562 -0.609375 0.273438 -0.617188 0.328125 -0.609375 C 0.335938 -0.609375 0.347656 -0.601562 0.359375 -0.59375 C 0.378906 -0.582031 0.382812 -0.570312 0.375 -0.5625 C 0.375 -0.550781 0.367188 -0.546875 0.359375 -0.546875 C 0.359375 -0.546875 0.359375 -0.539062 0.359375 -0.53125 C 0.359375 -0.53125 0.351562 -0.53125 0.34375 -0.53125 C 0.300781 -0.53125 0.265625 -0.519531 0.234375 -0.5 C 0.210938 -0.476562 0.191406 -0.457031 0.171875 -0.4375 C 0.148438 -0.40625 0.128906 -0.375 0.109375 -0.34375 C 0.0859375 -0.3125 0.0703125 -0.269531 0.0625 -0.21875 C 0.101562 -0.25 0.140625 -0.28125 0.171875 -0.3125 C 0.179688 -0.3125 0.1875 -0.316406 0.1875 -0.328125 C 0.195312 -0.328125 0.203125 -0.332031 0.203125 -0.34375 C 0.222656 -0.363281 0.25 -0.378906 0.28125 -0.390625 C 0.3125 -0.410156 0.34375 -0.421875 0.375 -0.421875 C 0.40625 -0.421875 0.429688 -0.410156 0.453125 -0.390625 C 0.492188 -0.359375 0.53125 -0.34375 0.5625 -0.34375 C 0.601562 -0.351562 0.640625 -0.367188 0.671875 -0.390625 C 0.703125 -0.410156 0.726562 -0.421875 0.75 -0.421875 Z M 0.75 -0.421875 "/></g></g></g><g fill="#ffffff" fill-opacity="1"><g transform="translate(56.797811, 2.319939)"><g><path d="M 1.09375 -0.390625 C 1.09375 -0.390625 1.09375 -0.382812 1.09375 -0.375 C 1.101562 -0.375 1.113281 -0.367188 1.125 -0.359375 C 1.125 -0.347656 1.117188 -0.335938 1.109375 -0.328125 C 1.054688 -0.296875 1.003906 -0.269531 0.953125 -0.25 C 0.898438 -0.226562 0.847656 -0.210938 0.796875 -0.203125 C 0.742188 -0.203125 0.691406 -0.207031 0.640625 -0.21875 C 0.566406 -0.21875 0.507812 -0.25 0.46875 -0.3125 C 0.457031 -0.332031 0.441406 -0.351562 0.421875 -0.375 C 0.410156 -0.382812 0.398438 -0.398438 0.390625 -0.421875 C 0.378906 -0.441406 0.363281 -0.441406 0.34375 -0.421875 C 0.320312 -0.410156 0.300781 -0.394531 0.28125 -0.375 C 0.257812 -0.351562 0.242188 -0.332031 0.234375 -0.3125 C 0.222656 -0.300781 0.210938 -0.289062 0.203125 -0.28125 C 0.203125 -0.269531 0.195312 -0.257812 0.1875 -0.25 C 0.164062 -0.226562 0.140625 -0.210938 0.109375 -0.203125 C 0.0859375 -0.203125 0.0664062 -0.207031 0.046875 -0.21875 C 0.0351562 -0.226562 0.0234375 -0.238281 0.015625 -0.25 C 0.00390625 -0.3125 -0.00390625 -0.375 -0.015625 -0.4375 C -0.015625 -0.476562 0 -0.5 0.03125 -0.5 C 0.0703125 -0.507812 0.0976562 -0.5 0.109375 -0.46875 C 0.117188 -0.457031 0.125 -0.453125 0.125 -0.453125 C 0.125 -0.441406 0.125 -0.429688 0.125 -0.421875 C 0.125 -0.421875 0.128906 -0.414062 0.140625 -0.40625 C 0.148438 -0.414062 0.160156 -0.425781 0.171875 -0.4375 C 0.191406 -0.445312 0.210938 -0.460938 0.234375 -0.484375 C 0.253906 -0.503906 0.273438 -0.515625 0.296875 -0.515625 C 0.316406 -0.523438 0.34375 -0.53125 0.375 -0.53125 C 0.4375 -0.53125 0.488281 -0.503906 0.53125 -0.453125 C 0.53125 -0.441406 0.535156 -0.429688 0.546875 -0.421875 C 0.566406 -0.398438 0.582031 -0.378906 0.59375 -0.359375 C 0.625 -0.316406 0.664062 -0.296875 0.71875 -0.296875 C 0.769531 -0.296875 0.816406 -0.300781 0.859375 -0.3125 C 0.898438 -0.320312 0.941406 -0.335938 0.984375 -0.359375 C 0.984375 -0.359375 0.988281 -0.359375 1 -0.359375 C 1.007812 -0.367188 1.019531 -0.375 1.03125 -0.375 C 1.050781 -0.382812 1.070312 -0.390625 1.09375 -0.390625 Z M 1.09375 -0.390625 "/></g></g></g><g fill="#ffffff" fill-opacity="1"><g transform="translate(57.817907, 2.319939)"><g><path d="M 0.75 -0.421875 C 0.757812 -0.410156 0.765625 -0.40625 0.765625 -0.40625 C 0.765625 -0.40625 0.769531 -0.398438 0.78125 -0.390625 C 0.78125 -0.390625 0.773438 -0.382812 0.765625 -0.375 C 0.753906 -0.363281 0.75 -0.351562 0.75 -0.34375 C 0.707031 -0.300781 0.65625 -0.273438 0.59375 -0.265625 C 0.550781 -0.265625 0.515625 -0.265625 0.484375 -0.265625 C 0.453125 -0.265625 0.421875 -0.273438 0.390625 -0.296875 C 0.359375 -0.304688 0.332031 -0.300781 0.3125 -0.28125 C 0.269531 -0.238281 0.222656 -0.203125 0.171875 -0.171875 C 0.148438 -0.148438 0.125 -0.132812 0.09375 -0.125 C 0.0703125 -0.113281 0.046875 -0.101562 0.015625 -0.09375 C -0.078125 -0.101562 -0.113281 -0.148438 -0.09375 -0.234375 C -0.09375 -0.234375 -0.09375 -0.238281 -0.09375 -0.25 C -0.0625 -0.3125 -0.0234375 -0.367188 0.015625 -0.421875 C 0.0546875 -0.484375 0.113281 -0.535156 0.1875 -0.578125 C 0.226562 -0.609375 0.273438 -0.617188 0.328125 -0.609375 C 0.335938 -0.609375 0.347656 -0.601562 0.359375 -0.59375 C 0.378906 -0.582031 0.382812 -0.570312 0.375 -0.5625 C 0.375 -0.550781 0.367188 -0.546875 0.359375 -0.546875 C 0.359375 -0.546875 0.359375 -0.539062 0.359375 -0.53125 C 0.359375 -0.53125 0.351562 -0.53125 0.34375 -0.53125 C 0.300781 -0.53125 0.265625 -0.519531 0.234375 -0.5 C 0.210938 -0.476562 0.191406 -0.457031 0.171875 -0.4375 C 0.148438 -0.40625 0.128906 -0.375 0.109375 -0.34375 C 0.0859375 -0.3125 0.0703125 -0.269531 0.0625 -0.21875 C 0.101562 -0.25 0.140625 -0.28125 0.171875 -0.3125 C 0.179688 -0.3125 0.1875 -0.316406 0.1875 -0.328125 C 0.195312 -0.328125 0.203125 -0.332031 0.203125 -0.34375 C 0.222656 -0.363281 0.25 -0.378906 0.28125 -0.390625 C 0.3125 -0.410156 0.34375 -0.421875 0.375 -0.421875 C 0.40625 -0.421875 0.429688 -0.410156 0.453125 -0.390625 C 0.492188 -0.359375 0.53125 -0.34375 0.5625 -0.34375 C 0.601562 -0.351562 0.640625 -0.367188 0.671875 -0.390625 C 0.703125 -0.410156 0.726562 -0.421875 0.75 -0.421875 Z M 0.75 -0.421875 "/></g></g></g><g fill="#ffffff" fill-opacity="1"><g transform="translate(58.518087, 2.319939)"><g><path d="M 0.140625 -0.203125 C 0.160156 -0.210938 0.175781 -0.203125 0.1875 -0.171875 C 0.195312 -0.148438 0.203125 -0.125 0.203125 -0.09375 C 0.203125 -0.0703125 0.195312 -0.0507812 0.1875 -0.03125 C 0.175781 -0.0195312 0.164062 -0.00390625 0.15625 0.015625 C 0.144531 0.015625 0.132812 0.015625 0.125 0.015625 C 0.125 0.015625 0.117188 0.015625 0.109375 0.015625 C 0.0976562 0.00390625 0.0976562 -0.00390625 0.109375 -0.015625 C 0.128906 -0.0546875 0.128906 -0.0859375 0.109375 -0.109375 C 0.0859375 -0.140625 0.0820312 -0.160156 0.09375 -0.171875 C 0.101562 -0.191406 0.117188 -0.203125 0.140625 -0.203125 Z M 0.140625 -0.203125 "/></g></g></g><g fill="#ffffff" fill-opacity="1"><g transform="translate(58.847097, 2.319939)"><g/></g></g><g fill="#ffffff" fill-opacity="1"><g transform="translate(59.500983, 2.319939)"><g><path d="M 1.21875 -0.421875 C 1.25 -0.421875 1.265625 -0.414062 1.265625 -0.40625 C 1.265625 -0.394531 1.253906 -0.378906 1.234375 -0.359375 C 1.222656 -0.347656 1.210938 -0.335938 1.203125 -0.328125 C 1.148438 -0.296875 1.097656 -0.257812 1.046875 -0.21875 C 1.003906 -0.175781 0.960938 -0.132812 0.921875 -0.09375 C 0.878906 -0.0625 0.851562 -0.015625 0.84375 0.046875 C 0.832031 0.109375 0.816406 0.191406 0.796875 0.296875 C 0.785156 0.398438 0.765625 0.507812 0.734375 0.625 C 0.703125 0.738281 0.664062 0.835938 0.625 0.921875 C 0.582031 1.015625 0.535156 1.085938 0.484375 1.140625 C 0.453125 1.160156 0.421875 1.171875 0.390625 1.171875 C 0.359375 1.179688 0.328125 1.179688 0.296875 1.171875 C 0.265625 1.160156 0.238281 1.144531 0.21875 1.125 C 0.207031 1.101562 0.203125 1.078125 0.203125 1.046875 C 0.191406 0.960938 0.203125 0.867188 0.234375 0.765625 C 0.265625 0.671875 0.300781 0.570312 0.34375 0.46875 C 0.394531 0.375 0.445312 0.296875 0.5 0.234375 C 0.550781 0.148438 0.609375 0.0703125 0.671875 0 C 0.703125 -0.0390625 0.71875 -0.0859375 0.71875 -0.140625 C 0.726562 -0.222656 0.738281 -0.347656 0.75 -0.515625 C 0.757812 -0.691406 0.765625 -0.878906 0.765625 -1.078125 C 0.765625 -1.285156 0.753906 -1.472656 0.734375 -1.640625 C 0.722656 -1.816406 0.695312 -1.945312 0.65625 -2.03125 C 0.632812 -2.050781 0.617188 -2.066406 0.609375 -2.078125 C 0.585938 -2.109375 0.5625 -2.113281 0.53125 -2.09375 C 0.5 -2.082031 0.46875 -2.066406 0.4375 -2.046875 C 0.363281 -1.984375 0.300781 -1.910156 0.25 -1.828125 C 0.195312 -1.753906 0.160156 -1.671875 0.140625 -1.578125 C 0.128906 -1.503906 0.132812 -1.429688 0.15625 -1.359375 C 0.164062 -1.304688 0.179688 -1.257812 0.203125 -1.21875 C 0.234375 -1.1875 0.269531 -1.164062 0.3125 -1.15625 C 0.320312 -1.15625 0.328125 -1.15625 0.328125 -1.15625 C 0.335938 -1.15625 0.34375 -1.148438 0.34375 -1.140625 C 0.351562 -1.140625 0.359375 -1.132812 0.359375 -1.125 C 0.359375 -1.101562 0.34375 -1.085938 0.3125 -1.078125 C 0.257812 -1.078125 0.21875 -1.085938 0.1875 -1.109375 C 0.125 -1.148438 0.078125 -1.191406 0.046875 -1.234375 C 0.0234375 -1.285156 0.015625 -1.34375 0.015625 -1.40625 C 0.00390625 -1.5 0.015625 -1.59375 0.046875 -1.6875 C 0.109375 -1.851562 0.207031 -1.992188 0.34375 -2.109375 C 0.40625 -2.160156 0.476562 -2.1875 0.5625 -2.1875 C 0.664062 -2.1875 0.738281 -2.144531 0.78125 -2.0625 C 0.820312 -1.976562 0.851562 -1.859375 0.875 -1.703125 C 0.894531 -1.546875 0.90625 -1.375 0.90625 -1.1875 C 0.90625 -1.007812 0.898438 -0.835938 0.890625 -0.671875 C 0.890625 -0.515625 0.882812 -0.390625 0.875 -0.296875 C 0.875 -0.265625 0.875 -0.242188 0.875 -0.234375 C 0.882812 -0.234375 0.90625 -0.242188 0.9375 -0.265625 C 0.96875 -0.285156 0.992188 -0.304688 1.015625 -0.328125 C 1.035156 -0.335938 1.054688 -0.351562 1.078125 -0.375 C 1.097656 -0.382812 1.117188 -0.394531 1.140625 -0.40625 C 1.171875 -0.414062 1.195312 -0.421875 1.21875 -0.421875 Z M 0.671875 0.28125 C 0.679688 0.226562 0.675781 0.203125 0.65625 0.203125 C 0.644531 0.210938 0.628906 0.238281 0.609375 0.28125 C 0.585938 0.320312 0.554688 0.378906 0.515625 0.453125 C 0.472656 0.535156 0.4375 0.625 0.40625 0.71875 C 0.382812 0.78125 0.367188 0.835938 0.359375 0.890625 C 0.347656 0.953125 0.335938 1 0.328125 1.03125 C 0.328125 1.070312 0.332031 1.09375 0.34375 1.09375 C 0.363281 1.09375 0.394531 1.0625 0.4375 1 C 0.488281 0.90625 0.535156 0.789062 0.578125 0.65625 C 0.617188 0.519531 0.648438 0.394531 0.671875 0.28125 Z M 0.671875 0.28125 "/></g></g></g><g fill="#ffffff" fill-opacity="1"><g transform="translate(60.680624, 2.319939)"><g><path d="M 1.09375 -0.390625 C 1.09375 -0.390625 1.09375 -0.382812 1.09375 -0.375 C 1.101562 -0.375 1.113281 -0.367188 1.125 -0.359375 C 1.125 -0.347656 1.117188 -0.335938 1.109375 -0.328125 C 1.054688 -0.296875 1.003906 -0.269531 0.953125 -0.25 C 0.898438 -0.226562 0.847656 -0.210938 0.796875 -0.203125 C 0.742188 -0.203125 0.691406 -0.207031 0.640625 -0.21875 C 0.566406 -0.21875 0.507812 -0.25 0.46875 -0.3125 C 0.457031 -0.332031 0.441406 -0.351562 0.421875 -0.375 C 0.410156 -0.382812 0.398438 -0.398438 0.390625 -0.421875 C 0.378906 -0.441406 0.363281 -0.441406 0.34375 -0.421875 C 0.320312 -0.410156 0.300781 -0.394531 0.28125 -0.375 C 0.257812 -0.351562 0.242188 -0.332031 0.234375 -0.3125 C 0.222656 -0.300781 0.210938 -0.289062 0.203125 -0.28125 C 0.203125 -0.269531 0.195312 -0.257812 0.1875 -0.25 C 0.164062 -0.226562 0.140625 -0.210938 0.109375 -0.203125 C 0.0859375 -0.203125 0.0664062 -0.207031 0.046875 -0.21875 C 0.0351562 -0.226562 0.0234375 -0.238281 0.015625 -0.25 C 0.00390625 -0.3125 -0.00390625 -0.375 -0.015625 -0.4375 C -0.015625 -0.476562 0 -0.5 0.03125 -0.5 C 0.0703125 -0.507812 0.0976562 -0.5 0.109375 -0.46875 C 0.117188 -0.457031 0.125 -0.453125 0.125 -0.453125 C 0.125 -0.441406 0.125 -0.429688 0.125 -0.421875 C 0.125 -0.421875 0.128906 -0.414062 0.140625 -0.40625 C 0.148438 -0.414062 0.160156 -0.425781 0.171875 -0.4375 C 0.191406 -0.445312 0.210938 -0.460938 0.234375 -0.484375 C 0.253906 -0.503906 0.273438 -0.515625 0.296875 -0.515625 C 0.316406 -0.523438 0.34375 -0.53125 0.375 -0.53125 C 0.4375 -0.53125 0.488281 -0.503906 0.53125 -0.453125 C 0.53125 -0.441406 0.535156 -0.429688 0.546875 -0.421875 C 0.566406 -0.398438 0.582031 -0.378906 0.59375 -0.359375 C 0.625 -0.316406 0.664062 -0.296875 0.71875 -0.296875 C 0.769531 -0.296875 0.816406 -0.300781 0.859375 -0.3125 C 0.898438 -0.320312 0.941406 -0.335938 0.984375 -0.359375 C 0.984375 -0.359375 0.988281 -0.359375 1 -0.359375 C 1.007812 -0.367188 1.019531 -0.375 1.03125 -0.375 C 1.050781 -0.382812 1.070312 -0.390625 1.09375 -0.390625 Z M 1.09375 -0.390625 "/></g></g></g><g fill="#ffffff" fill-opacity="1"><g transform="translate(61.70072, 2.319939)"><g><path d="M 0.609375 -0.375 C 0.628906 -0.382812 0.644531 -0.394531 0.65625 -0.40625 C 0.675781 -0.414062 0.691406 -0.421875 0.703125 -0.421875 C 0.710938 -0.421875 0.722656 -0.410156 0.734375 -0.390625 C 0.734375 -0.367188 0.703125 -0.34375 0.640625 -0.3125 C 0.585938 -0.28125 0.519531 -0.25 0.4375 -0.21875 C 0.363281 -0.195312 0.289062 -0.175781 0.21875 -0.15625 C 0.15625 -0.144531 0.101562 -0.140625 0.0625 -0.140625 C 0.0195312 -0.148438 -0.00390625 -0.164062 -0.015625 -0.1875 C -0.0351562 -0.21875 -0.046875 -0.253906 -0.046875 -0.296875 C -0.0351562 -0.335938 -0.015625 -0.378906 0.015625 -0.421875 C 0.046875 -0.472656 0.0859375 -0.515625 0.140625 -0.546875 C 0.203125 -0.578125 0.269531 -0.582031 0.34375 -0.5625 C 0.351562 -0.5625 0.359375 -0.5625 0.359375 -0.5625 C 0.367188 -0.550781 0.375 -0.539062 0.375 -0.53125 C 0.375 -0.519531 0.363281 -0.507812 0.34375 -0.5 C 0.332031 -0.5 0.316406 -0.5 0.296875 -0.5 C 0.253906 -0.488281 0.207031 -0.460938 0.15625 -0.421875 C 0.113281 -0.378906 0.09375 -0.332031 0.09375 -0.28125 C 0.09375 -0.257812 0.113281 -0.25 0.15625 -0.25 C 0.195312 -0.25 0.25 -0.253906 0.3125 -0.265625 C 0.375 -0.285156 0.429688 -0.304688 0.484375 -0.328125 C 0.546875 -0.347656 0.585938 -0.363281 0.609375 -0.375 Z M 0.609375 -0.375 "/></g></g></g><g fill="#ffffff" fill-opacity="1"><g transform="translate(62.355433, 2.319939)"><g><path d="M 0.15625 -0.1875 C 0.195312 -0.1875 0.210938 -0.164062 0.203125 -0.125 C 0.203125 -0.113281 0.195312 -0.0976562 0.1875 -0.078125 C 0.175781 -0.0664062 0.164062 -0.0546875 0.15625 -0.046875 C 0.144531 -0.046875 0.128906 -0.0507812 0.109375 -0.0625 C 0.0976562 -0.0625 0.09375 -0.0664062 0.09375 -0.078125 C 0.09375 -0.0976562 0.09375 -0.117188 0.09375 -0.140625 C 0.09375 -0.179688 0.113281 -0.195312 0.15625 -0.1875 Z M 0.15625 -0.1875 "/></g></g></g></svg>